<svg width="25" height="24" viewBox="0 0 25 24" fill="none" xmlns="http://www.w3.org/2000/svg">
<path d="M21.1255 2.625H3.87549C3.46064 2.625 3.12549 2.96016 3.12549 3.375V20.625C3.12549 21.0398 3.46064 21.375 3.87549 21.375H21.1255C21.5403 21.375 21.8755 21.0398 21.8755 20.625V3.375C21.8755 2.96016 21.5403 2.625 21.1255 2.625ZM18.9599 8.09766H17.4622C16.288 8.09766 16.0606 8.65547 16.0606 9.47578V11.2828H18.8638L18.4981 14.1117H16.0606V21.375H13.138V14.1141H10.6935V11.2828H13.138V9.19687C13.138 6.77578 14.6169 5.45625 16.7778 5.45625C17.8138 5.45625 18.7021 5.53359 18.9622 5.56875V8.09766H18.9599Z" fill="#222222"/>
</svg>
