<svg width="32" height="32" viewBox="0 0 32 32" fill="none" xmlns="http://www.w3.org/2000/svg">
<path d="M16.3267 6.18667C19.3925 6.18667 21.4605 7.48445 22.6397 8.5689L27.2474 4.16C24.4174 1.58222 20.7349 0 16.3267 0C9.94125 0 4.42651 3.59111 1.7417 8.81778L7.02061 12.8356C8.34487 8.97778 12.0093 6.18667 16.3267 6.18667Z" fill="#F25022"/>
<path d="M32.0001 16.3556C32.0001 15.04 31.8913 14.08 31.6555 13.0845H16.3267V19.0223H25.3244C25.143 20.4978 24.1634 22.72 21.9865 24.2134L27.1385 28.1245C30.2224 25.3334 32.0001 21.2267 32.0001 16.3556Z" fill="#4285F4"/>
<path d="M7.03855 19.1645C6.69388 18.169 6.49433 17.1023 6.49433 16.0001C6.49433 14.8979 6.69388 13.8312 7.02041 12.8357L1.7415 8.81787C0.634921 10.9868 0 13.4223 0 16.0001C0 18.5779 0.634921 21.0134 1.7415 23.1823L7.03855 19.1645Z" fill="#FBBC05"/>
<path d="M16.3267 32.0001C20.7348 32.0001 24.4355 30.5779 27.1385 28.1246L21.9865 24.2134C20.6078 25.1557 18.7575 25.8134 16.3267 25.8134C12.0092 25.8134 8.3448 23.0223 7.03868 19.1646L1.75977 23.1823C4.44457 28.409 9.94117 32.0001 16.3267 32.0001Z" fill="#34A853"/>
</svg>
