<svg width="28" height="32" viewBox="0 0 28 32" fill="none" xmlns="http://www.w3.org/2000/svg">
<path d="M8.24246 30.9153L8.78775 27.3926L7.57309 27.364H1.77295L5.80375 1.37013C5.81626 1.29166 5.85692 1.21849 5.91635 1.16653C5.97578 1.11457 6.0519 1.08594 6.13114 1.08594H15.911C19.1577 1.08594 21.3983 1.77308 22.5682 3.12935C23.1166 3.7656 23.4659 4.43047 23.6348 5.16216C23.812 5.9299 23.8152 6.84715 23.6421 7.96588L23.6296 8.04754V8.76437L24.178 9.08038C24.6399 9.32957 25.0069 9.61482 25.2884 9.94143C25.7576 10.4854 26.061 11.1768 26.1892 11.9965C26.3216 12.8395 26.2778 13.8427 26.061 14.9784C25.8107 16.2848 25.4062 17.4226 24.8599 18.3537C24.3573 19.2115 23.7171 19.9231 22.9571 20.4745C22.2314 20.9983 21.3692 21.396 20.3943 21.6505C19.4497 21.9007 18.3726 22.0269 17.1913 22.0269H16.4302C15.886 22.0269 15.3574 22.2263 14.9424 22.5837C14.5264 22.9484 14.2511 23.4468 14.1667 23.9919L14.1093 24.3089L13.1459 30.5176L13.1021 30.7456C13.0907 30.8177 13.0709 30.8538 13.0417 30.8782C13.0156 30.9005 12.9781 30.9153 12.9416 30.9153H8.24246Z" fill="#253B80"/>
<path d="M24.697 8.13013C24.6678 8.31994 24.6345 8.514 24.5969 8.71335C23.3072 15.448 18.8948 17.7746 13.2594 17.7746H10.3901C9.70089 17.7746 9.12015 18.2836 9.01276 18.975L7.5437 28.4508L7.12769 31.1368C7.05783 31.5907 7.4019 32 7.85232 32H12.9414C13.544 32 14.056 31.5546 14.1508 30.9502L14.2009 30.6872L15.1591 24.5029L15.2206 24.1635C15.3144 23.557 15.8274 23.1116 16.43 23.1116H17.1911C22.1217 23.1116 25.9815 21.0756 27.1097 15.184C27.5809 12.7228 27.337 10.6677 26.09 9.22235C25.7125 8.78652 25.2444 8.42492 24.697 8.13013Z" fill="#179BD7"/>
<path d="M23.3478 7.58288C23.1507 7.52456 22.9474 7.47154 22.7389 7.42382C22.5293 7.37716 22.3145 7.33581 22.0935 7.29975C21.3199 7.1725 20.4722 7.11206 19.5641 7.11206H11.8987C11.71 7.11206 11.5306 7.15554 11.3701 7.23401C11.0166 7.40685 10.7539 7.74725 10.6903 8.16399L9.05961 18.6684L9.0127 18.9749C9.12009 18.2835 9.70083 17.7745 10.39 17.7745H13.2593C18.8947 17.7745 23.3071 15.4469 24.5969 8.71328C24.6354 8.51392 24.6678 8.31987 24.697 8.13006C24.3706 7.95403 24.0172 7.80345 23.6366 7.67514C23.5428 7.64333 23.4458 7.61257 23.3478 7.58288Z" fill="#222D65"/>
<path d="M11.3701 7.23518C11.5317 7.15671 11.71 7.11324 11.8987 7.11324H19.5641C20.4723 7.11324 21.3199 7.17368 22.0935 7.30093C22.3146 7.33698 22.5294 7.37834 22.7389 7.425C22.9475 7.47272 23.1508 7.52574 23.3478 7.58406C23.4458 7.61375 23.5428 7.6445 23.6377 7.67526C24.0182 7.80357 24.3717 7.9552 24.698 8.13017C25.0817 5.64139 24.6949 3.94685 23.3718 2.41244C21.9132 0.7232 19.2805 0 15.9118 0H6.13195C5.44382 0 4.85682 0.508997 4.75047 1.20145L0.676919 27.4625C0.596636 27.9821 0.99075 28.4508 1.50581 28.4508H7.54367L9.05965 18.6685L10.6903 8.16411C10.7539 7.74736 11.0167 7.40697 11.3701 7.23518Z" fill="#253B80"/>
</svg>
